<svg width="91" height="95" viewBox="0 0 91 95" fill="none" xmlns="http://www.w3.org/2000/svg">
<g filter="url(#filter0_d)">
<circle cx="39" cy="39" r="22" stroke="black" stroke-width="6"/>
</g>
<g filter="url(#filter1_d)">
<rect x="51" y="57.2042" width="8" height="40" rx="4" transform="rotate(-40.5815 51 57.2042)" fill="black"/>
</g>
<path opacity="0.9" fill-rule="evenodd" clip-rule="evenodd" d="M50.3986 35.9875C50.9457 35.9123 51.3329 35.4057 51.2089 34.8675C50.0197 29.7036 45.2838 26.1118 39.9905 26.3593C39.4388 26.3851 39.0554 26.8945 39.1305 27.4417V27.4417C39.2057 27.9888 39.7111 28.3654 40.2632 28.3507C44.46 28.239 48.1935 31.0705 49.2178 35.1419C49.3525 35.6775 49.8514 36.0626 50.3986 35.9875V35.9875Z" fill="black"/>
<g filter="url(#filter2_f)">
<circle cx="39" cy="39" r="19" fill="#C4C4C4" fill-opacity="0.5"/>
</g>
<defs>
<filter id="filter0_d" x="11" y="11" width="60" height="60" filterUnits="userSpaceOnUse" color-interpolation-filters="sRGB">
<feFlood flood-opacity="0" result="BackgroundImageFix"/>
<feColorMatrix in="SourceAlpha" type="matrix" values="0 0 0 0 0 0 0 0 0 0 0 0 0 0 0 0 0 0 127 0"/>
<feMorphology radius="1" operator="dilate" in="SourceAlpha" result="effect1_dropShadow"/>
<feOffset dx="2" dy="2"/>
<feGaussianBlur stdDeviation="2"/>
<feColorMatrix type="matrix" values="0 0 0 0 0 0 0 0 0 0 0 0 0 0 0 0 0 0 0.25 0"/>
<feBlend mode="normal" in2="BackgroundImageFix" result="effect1_dropShadow"/>
<feBlend mode="normal" in="SourceGraphic" in2="effect1_dropShadow" result="shape"/>
</filter>
<filter id="filter1_d" x="48" y="49" width="42.097" height="45.5835" filterUnits="userSpaceOnUse" color-interpolation-filters="sRGB">
<feFlood flood-opacity="0" result="BackgroundImageFix"/>
<feColorMatrix in="SourceAlpha" type="matrix" values="0 0 0 0 0 0 0 0 0 0 0 0 0 0 0 0 0 0 127 0"/>
<feMorphology radius="1" operator="dilate" in="SourceAlpha" result="effect1_dropShadow"/>
<feOffset dx="2" dy="2"/>
<feGaussianBlur stdDeviation="2"/>
<feColorMatrix type="matrix" values="0 0 0 0 0 0 0 0 0 0 0 0 0 0 0 0 0 0 0.25 0"/>
<feBlend mode="normal" in2="BackgroundImageFix" result="effect1_dropShadow"/>
<feBlend mode="normal" in="SourceGraphic" in2="effect1_dropShadow" result="shape"/>
</filter>
<filter id="filter2_f" x="0" y="0" width="78" height="78" filterUnits="userSpaceOnUse" color-interpolation-filters="sRGB">
<feFlood flood-opacity="0" result="BackgroundImageFix"/>
<feBlend mode="normal" in="SourceGraphic" in2="BackgroundImageFix" result="shape"/>
<feGaussianBlur stdDeviation="10" result="effect1_foregroundBlur"/>
</filter>
</defs>
</svg>
